<?xml version="1.0" standalone="no"?><!DOCTYPE svg PUBLIC "-//W3C//DTD SVG 1.1//EN" "http://www.w3.org/Graphics/SVG/1.1/DTD/svg11.dtd"><svg t="1590572960832" class="icon" viewBox="0 0 1024 1024" version="1.1" xmlns="http://www.w3.org/2000/svg" p-id="9801" xmlns:xlink="http://www.w3.org/1999/xlink" width="200" height="200"><defs><style type="text/css"></style></defs><path d="M944.3 446.8l-110-110V141.4s3.1-24.6-9.5-40.4c-21.2-26.5-56.5-26.5-81.6-6.4-12.3 9.9-18.8 34.6-18.8 34.6v97.7L598.2 100.7S547.8 64 500.5 64c-41.9 0-81.5 36.7-81.5 36.7L89.1 426.4s-34.7 32.2-20.5 81.5c7.9 27.5 57.1 36.6 57.1 36.6h36.7V850s4.1 45.9 31.5 74.3c25.4 26.4 74.4 35.6 74.4 35.6h484.6s49.1-4.5 73.1-32.7c22.8-26.7 20.5-77.2 20.5-77.2V544.6h61.1s36.8-4.1 47-31.7c13.6-36.6-10.3-66.1-10.3-66.1z m-435 360.5c-90.6 0-135.9-45.3-135.9-135.9 0-90.6 45.3-135.9 135.9-135.9s135.9 45.3 135.9 135.9c0 90.6-45.3 135.9-135.9 135.9z" fill="#ffffff" p-id="9802"></path></svg>