<?xml version="1.0" standalone="no"?><!DOCTYPE svg PUBLIC "-//W3C//DTD SVG 1.1//EN" "http://www.w3.org/Graphics/SVG/1.1/DTD/svg11.dtd"><svg t="1598840180174" class="icon" viewBox="0 0 1024 1024" version="1.1" xmlns="http://www.w3.org/2000/svg" p-id="10200" xmlns:xlink="http://www.w3.org/1999/xlink" width="200" height="200"><defs><style type="text/css"></style></defs><path d="M861.008 708l-57.6-15.376A369.6 369.6 0 0 1 96 542.256a374.512 374.512 0 0 1 335.072-367.6L431.76 96h46.752C694.048 96 912 285.2 912 518.576a365.248 365.248 0 0 1-50.992 189.424z m-433.504-116.576l3.2-365.2c-155.2 22.4-283.632 155.632-283.632 316.032A318.752 318.752 0 0 0 465.76 861.008c118.896 0 242.688-73.248 285.824-182.192l-273.088-72.816z m50.992-444.416v408l345.6 92.144a250.88 250.88 0 0 0 34.112-128.576C858.16 317.392 664.32 147.008 478.496 147.008z" p-id="10201" fill="#e6e6e6"></path></svg>