<?xml version="1.0" standalone="no"?><!DOCTYPE svg PUBLIC "-//W3C//DTD SVG 1.1//EN" "http://www.w3.org/Graphics/SVG/1.1/DTD/svg11.dtd"><svg t="1591164374774" class="icon" viewBox="0 0 1024 1024" version="1.1" xmlns="http://www.w3.org/2000/svg" p-id="12033" xmlns:xlink="http://www.w3.org/1999/xlink" width="200" height="200"><defs><style type="text/css"></style></defs><path d="M580 568.5l-29 3.2c-0.2 0-0.3 0-0.5 0.1-7.1-30.6-17.8-56.6-32.4-77.7l12.4-15.5c15.1-18.9 12.1-46.5-6.8-61.6-18.9-15.1-46.5-12-61.6 6.8l-11.9 14.9c-24-10.1-51.8-15.3-83.6-15.5l-3.1-28c-2.7-24.1-24.3-41.4-48.4-38.7-24.1 2.6-41.4 24.3-38.7 48.3l3.2 28.6c-30.5 7.4-56.2 18.7-77.1 33.7l-16-12.8c-18.9-15.1-46.5-12.1-61.6 6.8-15.1 18.8-12.1 46.4 6.8 61.6l17 13.7c-9.3 23.5-14 50.7-14 81.6-0.9 0-1.8 0.1-2.6 0.2l-29 3.2C79 624 61.7 645.7 64.4 669.7c2.7 24.1 24.3 41.4 48.4 38.7l29-3.2c1.2-0.1 2.3-0.3 3.5-0.5 7.3 29.3 18.1 54.1 32.4 74.4l-15.4 19.3c-15.1 18.9-12.1 46.5 6.8 61.6 18.9 15.1 46.5 12.1 61.6-6.8l15.6-19.5c23 9.3 49.5 14.2 79.5 14.7 0 1.5 0.1 3 0.3 4.5l3.2 29c2.7 24.1 24.3 41.4 48.4 38.7 24.1-2.6 41.4-24.3 38.7-48.3l-3.2-29c-0.2-1.5-0.4-3-0.7-4.4 29.4-6.9 54.5-17.3 75.1-31.1l18.8 15.1c18.9 15.1 46.5 12.1 61.6-6.8 15.1-18.9 12.1-46.5-6.8-61.6l-17.3-13.9c10.1-23.4 15.5-50.5 16.1-81.4 0.3 0 0.6 0 0.8-0.1l29-3.2c24.1-2.6 41.4-24.3 38.7-48.3-2.8-24.5-24.5-41.9-48.5-39.1zM363.4 781.8c-96.8 10.7-150.5-32.4-161.2-129.2-10.7-96.8 32.4-150.5 129.1-161.1 96.8-10.8 150.5 32.3 161.2 129.1 10.7 96.7-32.4 150.5-129.1 161.2z m596.4-488.3c-2-18.2-18.4-31.3-36.6-29.3l-22 2.4h-0.4c-5.3-23.2-13.5-42.9-24.5-58.9l9.4-11.7c11.5-14.4 9.2-35.2-5.1-46.7-14.3-11.5-35.2-9.2-46.6 5.1l-9 11.3c-18.2-7.7-39.3-11.6-63.3-11.7l-2.3-21.3c-2-18.2-18.4-31.3-36.6-29.3-18.2 2-31.4 18.4-29.3 36.6l2.4 21.6c-23.1 5.6-42.6 14.1-58.4 25.5l-12.1-9.7c-14.3-11.5-35.2-9.2-46.6 5.2-11.5 14.3-9.2 35.1 5.2 46.6l12.9 10.3c-7 17.8-10.6 38.4-10.6 61.8-0.7 0-1.3 0.1-2 0.2l-22 2.4c-18.2 2-31.4 18.4-29.3 36.6 2 18.3 18.4 31.4 36.6 29.4l22-2.4c0.9-0.1 1.8-0.2 2.6-0.4 5.5 22.2 13.7 41 24.5 56.4L607 438.1c-11.5 14.4-9.2 35.2 5.1 46.6 14.3 11.5 35.2 9.1 46.6-5.1l11.9-14.8c17.4 7.1 37.5 10.8 60.2 11.1 0 1.1 0.1 2.3 0.2 3.4l2.4 22c2 18.2 18.4 31.4 36.6 29.4 18.2-2 31.3-18.4 29.3-36.6l-2.4-22c-0.1-1.1-0.3-2.2-0.5-3.3 22.3-5.2 41.2-13.1 56.9-23.6l14.2 11.4c14.3 11.4 35.2 9.1 46.6-5.2 11.5-14.3 9.2-35.2-5.2-46.7l-13.1-10.5c7.7-17.7 11.7-38.2 12.2-61.6 0.2 0 0.4 0 0.6-0.1l22-2.5c18.1-1.9 31.2-18.2 29.2-36.5zM759.1 425.8c-73.3 8-114-24.5-122.1-97.8-8.1-73.3 24.5-114 97.8-122.1 73.3-8.1 114 24.5 122.1 97.8 8.1 73.3-24.5 113.9-97.8 122.1z" fill="#e6e6e6" p-id="12034"></path></svg>