<?xml version="1.0" standalone="no"?><!DOCTYPE svg PUBLIC "-//W3C//DTD SVG 1.1//EN" "http://www.w3.org/Graphics/SVG/1.1/DTD/svg11.dtd"><svg t="1590572675165" class="icon" viewBox="0 0 1024 1024" version="1.1" xmlns="http://www.w3.org/2000/svg" p-id="9422" width="200" height="200" xmlns:xlink="http://www.w3.org/1999/xlink"><defs><style type="text/css"></style></defs><path d="M512 109.6c-298.7 0-448 149.3-448 448 0 271 123 355.1 232.1 355.1 25.1 1 43.9-180.8 375.5 1.7 180.9 0 288.4-58.2 288.4-356.8 0-298.7-149.3-448-448-448zM388.7 491.3c-63.9 18.3-107.9-12.6-132.1-92.8-24.2-80.2-4.3-129.5 59.6-147.9 21.2-6.1 40.2-6.7 57-2-32.7 10.2-42.8 37-30.3 80.4 12.6 43.8 35.6 60.6 69 50.6 20.8-6.3 32.7-19.1 35.6-38.5 0.2 0.8 0.5 1.5 0.7 2.3 24.2 80.3 4.4 129.6-59.5 147.9z m312.2 0C637 509.7 593 478.7 568.8 398.5c-24.2-80.2-4.3-129.5 59.6-147.9 23.5-6.7 44.3-6.8 62.5-0.2-28.6 11.4-37.1 37.6-25.2 78.6 12.6 43.8 35.6 60.6 69 50.6 14-4.2 23.9-11.4 29.8-21.5 17.5 71.6-3.7 116-63.6 133.2z" fill="#ffffff" p-id="9423"></path></svg>